<svg preserveAspectRatio="none" data-bbox="5.501 43.979 184.147 119.845" xmlns="http://www.w3.org/2000/svg" viewBox="5.501 43.979 184.147 119.845" role="presentation" aria-hidden="true">
<g><path d="M186.8 125.5c-1.8 8.3-10.9 12.4-18.5 10.6-8.2-1.9-11.3-10.8-10.5-18.7.5-5 .9-8 1.9-13.5C143 125.7 113 144.1 92.8 152c-30.6 12-71.7 14.4-80.5 9.3-6.5-3.8-11.9-18.5 1.4-18.2 19.5.3 45.1-4.5 63.1-11.2 15-5.6 45.8-25.3 58.4-44.7-1.4.7-13.7 8.3-17.4 10.2-4.9 2.5-15 .2-18.9-6.5-4.3-7.4 1.1-17.7 4.2-20.4 8.7-7.6 20.2-11.2 30.7-15.7 9.6-4 19.3-7.7 29.3-10.3 8.4-2.2 15.7 2.8 18.5 10.6 8.2 22.8 10.5 46.5 5.2 70.4z"></path></g>
</svg>